<svg width="33" height="28" viewBox="0 0 33 28" fill="none" xmlns="http://www.w3.org/2000/svg">
<path d="M10.582 4.00041C8.57812 3.97697 6.33984 4.96135 4.85156 7.04728C4.62891 7.32853 4.42969 7.64494 4.21875 8.11369C6.76172 8.57072 8.82422 10.8207 8.82422 13.3285C8.82422 14.0434 8.68359 14.6996 8.4375 15.2856C9.98438 15.0629 10.9453 14.7113 11.8242 14.2192C13.7578 13.1059 15.2812 11.3012 15.2812 8.71135C15.2812 5.72306 13.1719 4.02385 10.582 4.00041ZM11.0391 9.02775C10.8047 9.22697 10.4414 9.20353 10.2422 8.95744C10.043 8.71135 10.0781 8.35978 10.3242 8.16056L12.0469 6.70744C12.2812 6.50822 12.6328 6.54338 12.8203 6.78947C13.0312 7.02385 13.0195 7.37541 12.7734 7.57463L11.0391 9.02775ZM8.89453 24.7309H9.82031C10.5352 24.7309 11.0156 24.3559 11.0156 23.6293V15.9067C10.0195 16.2699 8.90625 16.4926 7.6875 16.5746V23.6293C7.6875 24.3559 8.16797 24.7309 8.89453 24.7309ZM21.5742 4.00041C18.9961 4.02385 16.8867 5.72306 16.8867 8.71135C16.8867 11.3012 18.4102 13.1059 20.332 14.2192C21.2227 14.7113 22.1836 15.0629 23.7305 15.2856C23.4727 14.6996 23.3438 14.0434 23.3438 13.3285C23.3438 10.8207 25.3945 8.57072 27.9375 8.11369C27.7383 7.64494 27.5273 7.32853 27.3164 7.04728C25.8164 4.96135 23.5898 3.97697 21.5742 4.00041ZM21.1289 9.02775L19.3945 7.57463C19.1484 7.37541 19.1367 7.02385 19.3359 6.78947C19.5234 6.54338 19.8867 6.50822 20.1211 6.70744L21.8438 8.16056C22.0898 8.35978 22.1133 8.71135 21.9141 8.95744C21.7148 9.20353 21.3633 9.22697 21.1289 9.02775ZM23.2617 24.7309C24 24.7309 24.4688 24.3559 24.4688 23.6293V16.5746C23.25 16.4926 22.1484 16.2699 21.1523 15.9067V23.6293C21.1523 24.3559 21.6211 24.7309 22.3477 24.7309H23.2617Z" fill="black"/>
<path d="M4.26562 16.727C6.08203 16.727 7.69922 15.602 7.69922 13.3285C7.69922 11.3011 5.78906 9.15662 3.30469 9.15662C1.20703 9.15662 0 10.8207 0 12.5199C0 15.0629 2.16797 16.727 4.26562 16.727ZM3.67969 14.9457C3.35156 15.2387 2.78906 14.9457 2.09766 14.1137C1.41797 13.2816 1.24219 12.7074 1.57031 12.4261C1.91016 12.1215 2.46094 12.4027 3.16406 13.2465C3.83203 14.102 4.00781 14.6645 3.67969 14.9457ZM27.9023 16.727C30 16.727 32.168 15.0629 32.168 12.5199C32.168 10.8207 30.9609 9.15662 28.8633 9.15662C26.3789 9.15662 24.4688 11.3011 24.4688 13.3285C24.4688 15.602 26.0859 16.727 27.9023 16.727ZM28.4883 14.9457C28.1602 14.6645 28.3359 14.102 29.0039 13.2465C29.707 12.4027 30.2578 12.1215 30.5977 12.4261C30.9258 12.7074 30.75 13.2816 30.0703 14.1137C29.3789 14.9457 28.8164 15.2387 28.4883 14.9457Z" fill="black"/>
</svg>
