<svg width="28" height="28" viewBox="0 0 28 28" fill="none" xmlns="http://www.w3.org/2000/svg">
<path d="M3 19.0977C3 21.1367 3.99609 22.1094 5.98828 22.1094H22.7227C24.7148 22.1094 25.7109 21.1367 25.7109 19.0977V5.01172C25.7109 2.96094 24.7031 2 22.6992 2H6.01172C4.00781 2 3 2.96094 3 5.01172V19.0977ZM4.88672 17.1758V5.04688C4.88672 4.21484 5.23828 3.88672 6.04688 3.88672H22.6641C23.4727 3.88672 23.8242 4.21484 23.8242 5.04688V17.1758C23.8242 17.9961 23.4727 18.3242 22.6641 18.3242H6.04688C5.23828 18.3242 4.88672 17.9961 4.88672 17.1758ZM20.9766 20.8906C20.5547 20.8906 20.1797 20.5156 20.1797 20.0703C20.1797 19.6484 20.5547 19.2734 20.9766 19.2734C21.4336 19.2734 21.7969 19.6484 21.7969 20.0703C21.7969 20.5156 21.4336 20.8906 20.9766 20.8906ZM14.3555 23.5156C17.6953 23.5156 20.2969 22.7539 21.082 21.5703H7.62891C8.41406 22.7539 11.0156 23.5156 14.3555 23.5156ZM8.73047 25.2852H19.9805C21.0352 25.2852 21.1055 24.125 20.4023 23.8086L17.5664 22.4961H11.1445L8.30859 23.8086C7.60547 24.125 7.67578 25.2852 8.73047 25.2852ZM7.78125 15.1836H13.2656C13.5 15.1836 13.6875 15.0078 13.6875 14.75C13.6875 14.5039 13.5 14.3516 13.2656 14.3516H7.78125C7.52344 14.3516 7.34766 14.5039 7.34766 14.75C7.34766 15.0078 7.52344 15.1836 7.78125 15.1836ZM7.78125 13.2031H15.4805C15.7266 13.2031 15.8906 13.0391 15.8906 12.7695C15.8906 12.5234 15.7266 12.3711 15.4805 12.3711H7.78125C7.52344 12.3711 7.34766 12.5234 7.34766 12.7695C7.34766 13.0391 7.52344 13.2031 7.78125 13.2031ZM7.91016 8.45703C8.22656 8.45703 8.47266 8.19922 8.47266 7.89453C8.47266 7.57812 8.22656 7.32031 7.91016 7.32031C7.59375 7.32031 7.34766 7.57812 7.34766 7.89453C7.34766 8.19922 7.59375 8.45703 7.91016 8.45703ZM7.91016 10.5664C8.22656 10.5664 8.47266 10.3086 8.47266 9.99219C8.47266 9.6875 8.22656 9.42969 7.91016 9.42969C7.59375 9.42969 7.34766 9.6875 7.34766 9.99219C7.34766 10.3086 7.59375 10.5664 7.91016 10.5664ZM9.30469 8.89062C9.30469 9.61719 9.70312 10.332 10.0547 10.6367C10.1484 10.7188 10.2539 10.7539 10.3594 10.7539C10.5586 10.7539 10.7109 10.6016 10.7109 10.4141C10.7109 10.2617 10.6289 10.1797 10.5234 10.0742C10.1836 9.73438 10.043 9.3125 10.043 8.89062C10.043 8.45703 10.207 8.05859 10.5234 7.70703C10.6289 7.58984 10.7109 7.50781 10.7109 7.35547C10.7109 7.16797 10.5586 7.01562 10.3594 7.01562C10.2656 7.01562 10.1484 7.0625 10.0547 7.14453C9.59766 7.53125 9.30469 8.16406 9.30469 8.89062Z" fill="black"/>
</svg>
