<svg width="30" height="28" viewBox="0 0 30 28" fill="none" xmlns="http://www.w3.org/2000/svg">
<path d="M3.01172 22.25H26.2852C28.2656 22.25 29.2969 21.2305 29.2969 19.2383V5.80859C29.2969 3.82812 28.2656 2.80859 26.2852 2.80859H3.01172C1.03125 2.80859 0 3.82812 0 5.80859V19.2383C0 21.2305 1.03125 22.25 3.01172 22.25ZM3.04688 20.3633C2.27344 20.3633 1.88672 19.9766 1.88672 19.2148V5.84375C1.88672 5.07031 2.27344 4.69531 3.04688 4.69531H26.25C27.0234 4.69531 27.4102 5.07031 27.4102 5.84375V19.2148C27.4102 19.9766 27.0234 20.3633 26.25 20.3633H3.04688ZM8.75391 26.2227H20.543C21.0586 26.2227 21.4922 25.8008 21.4922 25.2734C21.4922 24.7461 21.0586 24.3242 20.543 24.3242H8.75391C8.23828 24.3242 7.80469 24.7461 7.80469 25.2734C7.80469 25.8008 8.23828 26.2227 8.75391 26.2227ZM4.21875 18.7695H25.1016C25.6055 18.7695 25.8164 18.5469 25.8164 18.0195V7.02734C25.8164 6.51172 25.6055 6.28906 25.1016 6.28906H4.21875C3.71484 6.28906 3.49219 6.51172 3.49219 7.02734V18.0195C3.49219 18.5469 3.71484 18.7695 4.21875 18.7695Z" fill="#77DD77"/>
</svg>
